<svg xmlns="http://www.w3.org/2000/svg" viewBox="0 0 400 200" fill="none">
  <!-- Background circles -->
  <circle cx="200" cy="100" r="80" fill="#2563eb" opacity=".06"/>
  <circle cx="200" cy="100" r="55" fill="#8b5cf6" opacity=".06"/>
  <!-- Gear 1 -->
  <circle cx="140" cy="80" r="28" fill="#eff6ff" stroke="#2563eb" stroke-width="2"/>
  <circle cx="140" cy="80" r="12" fill="#fff" stroke="#2563eb" stroke-width="2"/>
  <rect x="136" y="50" width="8" height="12" rx="2" fill="#2563eb"/>
  <rect x="136" y="98" width="8" height="12" rx="2" fill="#2563eb"/>
  <rect x="110" y="76" width="12" height="8" rx="2" fill="#2563eb"/>
  <rect x="158" y="76" width="12" height="8" rx="2" fill="#2563eb"/>
  <!-- Gear 2 -->
  <circle cx="260" cy="110" r="24" fill="#ecfdf5" stroke="#10b981" stroke-width="2"/>
  <circle cx="260" cy="110" r="10" fill="#fff" stroke="#10b981" stroke-width="2"/>
  <rect x="257" y="84" width="6" height="10" rx="2" fill="#10b981"/>
  <rect x="257" y="126" width="6" height="10" rx="2" fill="#10b981"/>
  <rect x="234" y="107" width="10" height="6" rx="2" fill="#10b981"/>
  <rect x="276" y="107" width="10" height="6" rx="2" fill="#10b981"/>
  <!-- Wrench -->
  <path d="M190 70l20 30" stroke="#f97316" stroke-width="3" stroke-linecap="round"/>
  <circle cx="188" cy="67" r="6" fill="none" stroke="#f97316" stroke-width="2"/>
  <!-- Checklist -->
  <rect x="300" y="50" width="70" height="90" rx="8" fill="#fff" stroke="#8b5cf6" stroke-width="1.5"/>
  <rect x="312" y="62" width="20" height="4" rx="2" fill="#8b5cf6" opacity=".4"/>
  <rect x="312" y="76" width="30" height="4" rx="2" fill="#e2e8f0"/>
  <rect x="312" y="90" width="25" height="4" rx="2" fill="#e2e8f0"/>
  <rect x="312" y="104" width="28" height="4" rx="2" fill="#e2e8f0"/>
  <path d="M345 74l4 4 8-8" stroke="#10b981" stroke-width="2" stroke-linecap="round" stroke-linejoin="round"/>
  <path d="M345 88l4 4 8-8" stroke="#10b981" stroke-width="2" stroke-linecap="round" stroke-linejoin="round"/>
</svg>
